<svg width="88" height="86" viewBox="0 0 88 86" fill="none" xmlns="http://www.w3.org/2000/svg">
<g clip-path="url(#clip0)">
<path d="M13.7058 13.5315H21.6432C25.0298 13.5315 27.9931 15.7514 28.8663 18.8433C28.9986 19.3189 29.4483 19.6361 29.951 19.6361H41.5661C42.2276 19.6361 42.7832 19.0547 42.7038 18.394C41.5132 7.982 32.3587 0.0012207 21.5109 0.0012207H13.7058H0.000488281C0.000488281 7.4799 6.13876 13.5315 13.7058 13.5315Z" fill="url(#paint0_linear)"/>
<path d="M29.9773 21.8289C29.4481 21.8289 29.0248 22.1724 28.866 22.6745C27.9929 25.7135 25.1619 27.9334 21.8282 27.9334H13.7055C6.13852 27.9598 0.000244141 34.0114 0.000244141 41.4637V63.609C7.56726 63.609 13.7055 57.5574 13.7055 50.0787V42.5736C13.7055 41.9658 14.2082 41.4637 14.8432 41.4637H21.8282C32.6231 41.4637 41.5394 33.4036 42.73 23.0709C42.8094 22.4102 42.2803 21.8289 41.5924 21.8289H29.9773Z" fill="url(#paint1_linear)"/>
<g opacity="0.7">
<path opacity="0.7" d="M15.2138 13.5303H22.0665C14.4995 13.5303 8.36119 7.47868 8.36119 0H1.50854C1.50854 7.47868 7.64682 13.5303 15.2138 13.5303Z" fill="url(#paint2_linear)"/>
<path opacity="0.7" d="M0.000732422 62.8428C7.56774 62.8428 13.706 56.844 13.706 49.4446V42.1509C13.706 49.5503 7.56774 55.5491 0.000732422 55.5491V62.8428Z" fill="url(#paint3_linear)"/>
</g>
<path d="M13.7058 13.5315H20.5584C12.9914 13.5315 6.85313 7.4799 6.85313 0.0012207H0.000488281C0.000488281 7.4799 6.13876 13.5315 13.7058 13.5315Z" fill="url(#paint4_linear)"/>
<path d="M0.000244141 63.6089C7.56726 63.6089 13.7055 57.5572 13.7055 50.0785V42.7056C13.7055 50.1842 7.56726 56.2359 0.000244141 56.2359V63.6089Z" fill="url(#paint5_linear)"/>
<path d="M47.5984 20.9293C47.5984 10.9401 54.16 3.38219 64.0553 1.16237C65.9868 0.739547 68.0505 0.501709 70.22 0.501709H85.1953H87.9999C87.4972 6.26267 82.3114 10.808 75.9879 10.808C75.935 10.808 75.9085 10.808 75.8556 10.808C75.8556 10.8873 75.8556 10.9666 75.8556 11.0459V10.8344H70.8021C70.1936 10.8344 69.6115 10.8609 69.0559 10.9401C60.3247 11.6537 53.4721 18.4717 53.4721 26.796C53.4721 32.1077 56.2766 36.8116 60.5628 39.6921C52.6519 36.6002 47.5984 29.6765 47.5984 20.9293Z" fill="url(#paint6_linear)"/>
<path d="M69.0556 10.9397C63.5523 11.6004 59.9804 15.4322 59.9804 20.9289C59.9804 26.9541 64.3196 31.1031 70.8018 31.1031H75.8553V31.0766H76.8607C80.3003 31.0766 83.3429 32.5301 85.3802 34.7763C86.9942 36.5733 87.9731 38.8989 87.9731 41.4094H77.3105H70.2462C66.7008 41.4094 63.4465 40.8016 60.5625 39.6652C56.2763 36.7847 53.4718 32.0808 53.4718 26.7691C53.4453 18.4712 60.2979 11.6532 69.0556 10.9397Z" fill="url(#paint7_linear)"/>
</g>
<path d="M4.16271 72.0666C4.19258 72.0666 4.26298 72.0666 4.37391 72.0666C4.48911 72.0624 4.61497 72.0602 4.75151 72.0602C4.88804 72.0602 5.02457 72.0602 5.1611 72.0602C5.29764 72.056 5.40857 72.0538 5.4939 72.0538C6.04003 72.0538 6.44963 72.1712 6.7227 72.4058C6.99576 72.6362 7.1323 72.9584 7.1323 73.3722C7.1323 73.8288 6.9787 74.1722 6.6715 74.4026C6.3643 74.6288 5.94403 74.7418 5.4107 74.7418H5.2187V76.3994H4.16271V72.0666ZM5.2187 74.0442H5.4875C5.63257 74.0442 5.75844 73.9952 5.8651 73.897C5.97177 73.7946 6.0251 73.6368 6.0251 73.4234C6.0251 73.2442 5.9803 73.0885 5.8907 72.9562C5.80537 72.824 5.6603 72.7557 5.4555 72.7514C5.40004 72.7514 5.3531 72.7536 5.3147 72.7578C5.2763 72.7578 5.2443 72.76 5.2187 72.7642V74.0442ZM7.64394 72.0666C7.68234 72.0666 7.75914 72.0666 7.87434 72.0666C7.98954 72.0624 8.11754 72.0602 8.25834 72.0602C8.39914 72.0602 8.53567 72.0602 8.66794 72.0602C8.80021 72.056 8.9026 72.0538 8.97514 72.0538C9.52127 72.0538 9.93087 72.1584 10.2039 72.3674C10.477 72.5765 10.6135 72.8858 10.6135 73.2954C10.6135 73.5685 10.5474 73.7946 10.4151 73.9738C10.2829 74.1488 10.1037 74.2853 9.87753 74.3834C10.0055 74.456 10.1186 74.552 10.2167 74.6714C10.3149 74.7909 10.4087 74.936 10.4983 75.1066C10.5879 75.273 10.6775 75.465 10.7671 75.6826C10.861 75.9002 10.9634 76.1391 11.0743 76.3994H9.94153C9.805 76.1007 9.6898 75.8383 9.59594 75.6122C9.50207 75.3818 9.4146 75.1898 9.33354 75.0362C9.25247 74.8784 9.1714 74.761 9.09034 74.6842C9.01354 74.6032 8.91967 74.5626 8.80874 74.5626H8.69994V76.3994H7.64394V72.0666ZM8.69994 73.9034H8.96874C9.11807 73.9034 9.24394 73.8586 9.34634 73.769C9.453 73.6752 9.50634 73.5301 9.50634 73.3338C9.50634 73.2528 9.49567 73.1781 9.47434 73.1098C9.45727 73.0373 9.4274 72.9754 9.38474 72.9242C9.34207 72.8688 9.28234 72.8261 9.20554 72.7962C9.133 72.7621 9.0434 72.745 8.93674 72.745H8.69994V73.9034ZM12.8418 72.0666H13.7826L15.3698 76.3994H14.301L13.981 75.3562H12.5794L12.2466 76.3994H11.197L12.8418 72.0666ZM13.7442 74.5754C13.7015 74.4517 13.6567 74.3237 13.6098 74.1914C13.5671 74.0549 13.5244 73.9226 13.4818 73.7946C13.4434 73.6666 13.4071 73.5472 13.373 73.4362C13.3388 73.321 13.309 73.225 13.2834 73.1482C13.2578 73.2293 13.2279 73.3274 13.1938 73.4426C13.1596 73.5536 13.1212 73.673 13.0786 73.801C13.0402 73.929 12.9975 74.0592 12.9506 74.1914C12.9079 74.3237 12.8652 74.4517 12.8226 74.5754H13.7442ZM15.7564 72.0666H16.8124V76.3994H15.7564V72.0666ZM19.1356 72.0666C19.0759 72.3696 19.0055 72.6298 18.9244 72.8474C18.8476 73.065 18.7623 73.2549 18.6684 73.417C18.5745 73.5749 18.4743 73.7093 18.3676 73.8202C18.2609 73.9312 18.15 74.0314 18.0348 74.121L19.5324 76.3994H18.3548L16.8828 74.025V73.9482C17.0705 73.8586 17.2284 73.7541 17.3564 73.6346C17.4887 73.5109 17.5996 73.3722 17.6892 73.2186C17.7788 73.0608 17.8535 72.888 17.9132 72.7002C17.9772 72.5082 18.0348 72.297 18.086 72.0666H19.1356ZM21.2042 72.0666H22.145L23.7322 76.3994H22.6634L22.3434 75.3562H20.9418L20.609 76.3994H19.5594L21.2042 72.0666ZM22.1066 74.5754C22.064 74.4517 22.0192 74.3237 21.9722 74.1914C21.9296 74.0549 21.8869 73.9226 21.8442 73.7946C21.8058 73.6666 21.7696 73.5472 21.7354 73.4362C21.7013 73.321 21.6714 73.225 21.6458 73.1482C21.6202 73.2293 21.5904 73.3274 21.5562 73.4426C21.5221 73.5536 21.4837 73.673 21.441 73.801C21.4026 73.929 21.36 74.0592 21.313 74.1914C21.2704 74.3237 21.2277 74.4517 21.185 74.5754H22.1066ZM25.4309 72.009C25.5845 72.009 25.7317 72.0218 25.8725 72.0474C26.0175 72.073 26.1519 72.105 26.2757 72.1434C26.3994 72.1818 26.5103 72.2266 26.6085 72.2778C26.7109 72.3248 26.7983 72.3738 26.8709 72.425L26.4997 73.129C26.4485 73.1034 26.3866 73.0714 26.3141 73.033C26.2415 72.9904 26.1626 72.9498 26.0773 72.9114C25.9962 72.873 25.9109 72.841 25.8213 72.8154C25.7359 72.7898 25.6527 72.777 25.5717 72.777C25.4223 72.777 25.3114 72.809 25.2389 72.873C25.1663 72.9328 25.1301 73.0096 25.1301 73.1034C25.1343 73.176 25.1514 73.24 25.1813 73.2954C25.2111 73.3509 25.2559 73.4064 25.3157 73.4618C25.3754 73.513 25.4522 73.5642 25.5461 73.6154C25.6399 73.6666 25.7551 73.72 25.8917 73.7754C26.0623 73.848 26.2117 73.9226 26.3397 73.9994C26.4677 74.0762 26.5722 74.1637 26.6533 74.2618C26.7386 74.36 26.8026 74.4709 26.8453 74.5946C26.8879 74.7184 26.9093 74.8613 26.9093 75.0234C26.9093 75.2197 26.873 75.4053 26.8005 75.5802C26.7322 75.7509 26.6319 75.9002 26.4997 76.0282C26.3674 76.1562 26.2074 76.2565 26.0197 76.329C25.8319 76.4015 25.6207 76.4378 25.3861 76.4378C25.2197 76.4378 25.0597 76.4229 24.9061 76.393C24.7567 76.3631 24.6181 76.3247 24.4901 76.2778C24.3621 76.2309 24.2447 76.1818 24.1381 76.1306C24.0314 76.0751 23.9397 76.0239 23.8629 75.977L24.2085 75.2218C24.2383 75.2432 24.2938 75.2794 24.3749 75.3306C24.4559 75.3776 24.5477 75.4266 24.6501 75.4778C24.7525 75.5248 24.857 75.5674 24.9637 75.6058C25.0703 75.6442 25.1663 75.6634 25.2517 75.6634C25.4309 75.6634 25.561 75.6229 25.6421 75.5418C25.7274 75.4565 25.7701 75.337 25.7701 75.1834C25.7701 75.0298 25.7167 74.9146 25.6101 74.8378C25.5077 74.7568 25.3605 74.6778 25.1685 74.601C24.9807 74.5242 24.8143 74.4432 24.6693 74.3578C24.5242 74.2725 24.4005 74.1765 24.2981 74.0698C24.1999 73.9632 24.1231 73.8437 24.0677 73.7114C24.0165 73.5792 23.9909 73.4256 23.9909 73.2506C23.9909 73.0586 24.0293 72.888 24.1061 72.7386C24.1871 72.585 24.2938 72.4549 24.4261 72.3482C24.5583 72.2373 24.7098 72.1541 24.8805 72.0986C25.0554 72.0389 25.2389 72.009 25.4309 72.009ZM30.0412 74.5434H28.5436V76.3994H27.4876V72.0666H28.5436V73.7626H30.0412V72.0666H31.0908V76.3994H30.0412V74.5434ZM35.9891 73.1226C35.8696 72.9776 35.7544 72.8816 35.6435 72.8346C35.5325 72.7834 35.4216 72.7578 35.3107 72.7578C35.0333 72.7578 34.8307 72.888 34.7027 73.1482C34.5789 73.4042 34.5171 73.7605 34.5171 74.217C34.5171 74.4346 34.5299 74.6352 34.5555 74.8186C34.5853 74.9978 34.6344 75.1514 34.7027 75.2794C34.7709 75.4074 34.8605 75.5077 34.9715 75.5802C35.0867 75.6528 35.2296 75.689 35.4003 75.689C35.5496 75.689 35.6947 75.672 35.8355 75.6378C35.9805 75.5994 36.1128 75.5568 36.2323 75.5098L36.4627 76.2266C36.3304 76.2821 36.164 76.3311 35.9635 76.3738C35.7629 76.4165 35.5325 76.4378 35.2723 76.4378C34.6152 76.4378 34.1352 76.2522 33.8323 75.881C33.5293 75.5056 33.3779 74.9744 33.3779 74.2874C33.3779 73.9546 33.4163 73.6496 33.4931 73.3722C33.5741 73.0949 33.6936 72.856 33.8515 72.6554C34.0136 72.4506 34.2141 72.2928 34.4531 72.1818C34.6963 72.0666 34.9821 72.009 35.3107 72.009C35.4813 72.009 35.6307 72.024 35.7587 72.0538C35.8909 72.0837 36.0061 72.1242 36.1043 72.1754C36.2024 72.2224 36.2877 72.2778 36.3603 72.3418C36.4371 72.4058 36.5053 72.472 36.5651 72.5402L35.9891 73.1226ZM39.5911 74.5434H38.0936V76.3994H37.0376V72.0666H38.0936V73.7626H39.5911V72.0666H40.6407V76.3994H39.5911V74.5434ZM42.6854 72.0666H43.6262L45.2134 76.3994H44.1446L43.8246 75.3562H42.423L42.0902 76.3994H41.0406L42.6854 72.0666ZM43.5878 74.5754C43.5451 74.4517 43.5003 74.3237 43.4534 74.1914C43.4107 74.0549 43.368 73.9226 43.3254 73.7946C43.287 73.6666 43.2507 73.5472 43.2166 73.4362C43.1825 73.321 43.1526 73.225 43.127 73.1482C43.1014 73.2293 43.0715 73.3274 43.0374 73.4426C43.0033 73.5536 42.9649 73.673 42.9222 73.801C42.8838 73.929 42.8411 74.0592 42.7942 74.1914C42.7515 74.3237 42.7089 74.4517 42.6662 74.5754H43.5878ZM46.912 72.009C47.0656 72.009 47.2128 72.0218 47.3536 72.0474C47.4987 72.073 47.6331 72.105 47.7568 72.1434C47.8805 72.1818 47.9915 72.2266 48.0896 72.2778C48.192 72.3248 48.2795 72.3738 48.352 72.425L47.9808 73.129C47.9296 73.1034 47.8677 73.0714 47.7952 73.033C47.7227 72.9904 47.6437 72.9498 47.5584 72.9114C47.4773 72.873 47.392 72.841 47.3024 72.8154C47.2171 72.7898 47.1339 72.777 47.0528 72.777C46.9035 72.777 46.7926 72.809 46.72 72.873C46.6475 72.9328 46.6112 73.0096 46.6112 73.1034C46.6155 73.176 46.6326 73.24 46.6624 73.2954C46.6923 73.3509 46.7371 73.4064 46.7968 73.4618C46.8566 73.513 46.9333 73.5642 47.0272 73.6154C47.1211 73.6666 47.2363 73.72 47.3728 73.7754C47.5435 73.848 47.6928 73.9226 47.8208 73.9994C47.9488 74.0762 48.0533 74.1637 48.1344 74.2618C48.2197 74.36 48.2837 74.4709 48.3264 74.5946C48.3691 74.7184 48.3904 74.8613 48.3904 75.0234C48.3904 75.2197 48.3541 75.4053 48.2816 75.5802C48.2133 75.7509 48.1131 75.9002 47.9808 76.0282C47.8485 76.1562 47.6885 76.2565 47.5008 76.329C47.3131 76.4015 47.1019 76.4378 46.8672 76.4378C46.7008 76.4378 46.5408 76.4229 46.3872 76.393C46.2379 76.3631 46.0992 76.3247 45.9712 76.2778C45.8432 76.2309 45.7259 76.1818 45.6192 76.1306C45.5126 76.0751 45.4208 76.0239 45.344 75.977L45.6896 75.2218C45.7195 75.2432 45.775 75.2794 45.856 75.3306C45.9371 75.3776 46.0288 75.4266 46.1312 75.4778C46.2336 75.5248 46.3382 75.5674 46.4448 75.6058C46.5515 75.6442 46.6475 75.6634 46.7328 75.6634C46.912 75.6634 47.0421 75.6229 47.1232 75.5418C47.2085 75.4565 47.2512 75.337 47.2512 75.1834C47.2512 75.0298 47.1979 74.9146 47.0912 74.8378C46.9888 74.7568 46.8416 74.6778 46.6496 74.601C46.4619 74.5242 46.2955 74.4432 46.1504 74.3578C46.0054 74.2725 45.8816 74.1765 45.7792 74.0698C45.6811 73.9632 45.6043 73.8437 45.5488 73.7114C45.4976 73.5792 45.472 73.4256 45.472 73.2506C45.472 73.0586 45.5104 72.888 45.5872 72.7386C45.6683 72.585 45.775 72.4549 45.9072 72.3482C46.0395 72.2373 46.191 72.1541 46.3616 72.0986C46.5366 72.0389 46.72 72.009 46.912 72.009ZM51.5223 74.5434H50.0248V76.3994H48.9688V72.0666H50.0248V73.7626H51.5223V72.0666H52.5719V76.3994H51.5223V74.5434ZM56.1206 76.3994H55.3206L54.7894 75.1706C54.7766 75.1365 54.751 75.0746 54.7126 74.985C54.6784 74.8912 54.6379 74.7866 54.591 74.6714C54.5483 74.552 54.5035 74.4304 54.4566 74.3066C54.4096 74.1829 54.367 74.0698 54.3286 73.9674C54.3286 74.0784 54.3286 74.2064 54.3286 74.3514C54.3286 74.4965 54.3286 74.6437 54.3286 74.793C54.3286 74.9424 54.3264 75.0832 54.3222 75.2154C54.3222 75.3477 54.32 75.4522 54.3158 75.529L54.2838 76.3994H53.311L53.567 72.0666H54.4758L55.4742 74.5626C55.504 74.6394 55.5424 74.7482 55.5894 74.889C55.6406 75.0256 55.6896 75.1749 55.7366 75.337C55.7835 75.1792 55.8304 75.032 55.8774 74.8954C55.9286 74.7546 55.9712 74.6437 56.0054 74.5626L57.0038 72.0666H57.8934L58.1494 76.3994H57.1574L57.119 75.529C57.1147 75.448 57.1104 75.3413 57.1062 75.209C57.1062 75.0768 57.1062 74.9381 57.1062 74.793C57.1062 74.6437 57.1062 74.4965 57.1062 74.3514C57.1104 74.2021 57.1126 74.0741 57.1126 73.9674C57.0784 74.057 57.04 74.1594 56.9974 74.2746C56.959 74.3856 56.9184 74.4944 56.8758 74.601C56.8331 74.7077 56.7926 74.808 56.7542 74.9018C56.7158 74.9914 56.6859 75.0618 56.6646 75.113L56.1206 76.3994ZM58.8812 72.0666H61.6396V72.841H59.9372V73.769H61.3516L61.23 74.5306H59.9372V75.625H61.7292V76.3994H58.8812V72.0666ZM63.1782 74.7354L61.8406 72.0666H62.9542L63.7222 73.7242L64.5094 72.0666H65.6102L64.2278 74.793V76.3994H63.1782V74.7354ZM70.4022 74.4218C70.3723 74.328 70.3446 74.232 70.319 74.1338C70.2977 74.0357 70.2763 73.9418 70.255 73.8522C70.2379 73.7626 70.2209 73.6816 70.2038 73.609C70.191 73.5365 70.1782 73.4789 70.1654 73.4362C70.1569 73.4789 70.1441 73.5408 70.127 73.6218C70.1099 73.7029 70.0907 73.7904 70.0694 73.8842C70.0523 73.9781 70.0331 74.0741 70.0118 74.1722C69.9905 74.2704 69.967 74.36 69.9414 74.441L69.3334 76.3994H68.4822L67.279 72.0666H68.3286L68.7382 73.6922C68.7638 73.7904 68.7873 73.8928 68.8086 73.9994C68.8299 74.1061 68.8513 74.2149 68.8726 74.3258C68.8939 74.4325 68.9131 74.537 68.9302 74.6394C68.9473 74.7376 68.9622 74.825 68.975 74.9018C69.0091 74.744 69.0497 74.5541 69.0966 74.3322C69.1478 74.1061 69.2033 73.8949 69.263 73.6986L69.7494 72.0666H70.607L71.1062 73.7114C71.1787 73.9461 71.2342 74.1701 71.2726 74.3834C71.3153 74.5925 71.3537 74.7738 71.3878 74.9274C71.4091 74.7738 71.4369 74.5925 71.471 74.3834C71.5051 74.1744 71.5521 73.9482 71.6118 73.705L72.015 72.0666H73.0774L71.8742 76.3994H71.023L70.4022 74.4218ZM74.4602 72.0666H75.401L76.9882 76.3994H75.9194L75.5994 75.3562H74.1978L73.865 76.3994H72.8155L74.4602 72.0666ZM75.3626 74.5754C75.32 74.4517 75.2752 74.3237 75.2282 74.1914C75.1856 74.0549 75.1429 73.9226 75.1002 73.7946C75.0618 73.6666 75.0256 73.5472 74.9914 73.4362C74.9573 73.321 74.9274 73.225 74.9018 73.1482C74.8762 73.2293 74.8464 73.3274 74.8122 73.4426C74.7781 73.5536 74.7397 73.673 74.697 73.801C74.6586 73.929 74.616 74.0592 74.569 74.1914C74.5264 74.3237 74.4837 74.4517 74.441 74.5754H75.3626ZM77.3749 72.0666H78.4309V75.625H79.9541V76.3994H77.3749V72.0666ZM80.3061 72.0666H83.0645V72.841H81.3621V73.769H82.7765L82.6549 74.5306H81.3621V75.625H83.1541V76.3994H80.3061V72.0666ZM84.6031 74.7354L83.2655 72.0666H84.3791L85.1471 73.7242L85.9343 72.0666H87.0351L85.6527 74.793V76.3994H84.6031V74.7354Z" fill="url(#paint8_linear)"/>
<path d="M33.2899 81.2092C33.4392 81.2092 33.5822 81.2242 33.7187 81.254C33.8552 81.2796 33.979 81.3116 34.0899 81.35C34.2051 81.3842 34.3011 81.4204 34.3779 81.4588C34.459 81.4972 34.5144 81.5271 34.5443 81.5484L34.2307 82.0988L34.1475 82.054C34.092 82.0242 34.0195 81.99 33.9299 81.9516C33.8403 81.9132 33.7422 81.8791 33.6355 81.8492C33.5288 81.8194 33.4264 81.8044 33.3283 81.8044C33.1747 81.8044 33.0403 81.8407 32.9251 81.9132C32.8142 81.9858 32.7587 82.0988 32.7587 82.2524C32.7587 82.4444 32.8206 82.6023 32.9443 82.726C33.068 82.8455 33.2622 82.9564 33.5267 83.0588C33.6974 83.1271 33.8488 83.1996 33.9811 83.2764C34.1176 83.349 34.2328 83.4343 34.3267 83.5324C34.4206 83.6306 34.491 83.7436 34.5379 83.8716C34.5891 83.9996 34.6147 84.1532 34.6147 84.3324C34.6147 84.4945 34.5827 84.6545 34.5187 84.8124C34.459 84.9703 34.3672 85.1111 34.2435 85.2348C34.124 85.3543 33.9747 85.4524 33.7955 85.5292C33.6163 85.6017 33.4094 85.638 33.1747 85.638C33.0083 85.638 32.8504 85.6209 32.7011 85.5868C32.5518 85.5527 32.4152 85.5143 32.2915 85.4716C32.172 85.4247 32.0675 85.3777 31.9779 85.3308C31.8926 85.2839 31.8286 85.2476 31.7859 85.222L32.0547 84.6332L32.1699 84.6972C32.2467 84.7399 32.3406 84.7868 32.4515 84.838C32.5624 84.8892 32.6798 84.9361 32.8035 84.9788C32.9272 85.0215 33.0339 85.0428 33.1235 85.0428C33.3496 85.0428 33.5182 84.9873 33.6291 84.8764C33.74 84.7655 33.7955 84.6097 33.7955 84.4092C33.7955 84.3153 33.7806 84.2343 33.7507 84.166C33.7208 84.0935 33.6782 84.0316 33.6227 83.9804C33.5672 83.9292 33.499 83.8844 33.4179 83.846C33.3411 83.8034 33.2536 83.7628 33.1555 83.7244C32.9635 83.6434 32.7907 83.5623 32.6371 83.4812C32.4878 83.4002 32.3598 83.3084 32.2531 83.206C32.1464 83.0994 32.0654 82.9799 32.0099 82.8476C31.9544 82.7111 31.9267 82.549 31.9267 82.3612C31.9267 82.2034 31.9608 82.0562 32.0291 81.9196C32.0974 81.7788 32.1912 81.6572 32.3107 81.5548C32.4302 81.4482 32.5731 81.365 32.7395 81.3052C32.9059 81.2412 33.0894 81.2092 33.2899 81.2092ZM35.9256 85.6252C35.6995 85.6252 35.5267 85.5591 35.4072 85.4268C35.2878 85.2903 35.228 85.1153 35.228 84.902V82.4124H35.9576V84.838C35.9576 84.9361 35.9726 85.0023 36.0024 85.0364C36.0323 85.0705 36.0771 85.0876 36.1368 85.0876C36.1539 85.0876 36.171 85.0876 36.188 85.0876C36.2094 85.0876 36.2286 85.0855 36.2456 85.0812C36.2627 85.0812 36.2819 85.0791 36.3032 85.0748L36.38 85.5356C36.3502 85.5527 36.3118 85.5676 36.2648 85.5804C36.2264 85.5932 36.1774 85.6039 36.1176 85.6124C36.0622 85.6209 35.9982 85.6252 35.9256 85.6252ZM35.6056 80.9916C35.7422 80.9916 35.8467 81.0322 35.9192 81.1132C35.9918 81.1943 36.028 81.2988 36.028 81.4268C36.028 81.5548 35.9896 81.6615 35.9128 81.7468C35.8403 81.8322 35.7315 81.8748 35.5864 81.8748C35.4499 81.8748 35.3432 81.8343 35.2664 81.7532C35.1939 81.6679 35.1576 81.5655 35.1576 81.446C35.1576 81.3138 35.1939 81.205 35.2664 81.1196C35.3432 81.0343 35.4563 80.9916 35.6056 80.9916ZM38.8751 85.5996V83.5324C38.8751 83.3532 38.8431 83.2103 38.7791 83.1036C38.7151 82.9927 38.6063 82.9372 38.4527 82.9372C38.3546 82.9372 38.2586 82.9628 38.1647 83.014C38.0751 83.061 37.9941 83.1314 37.9215 83.2252C37.849 83.3191 37.7893 83.4343 37.7423 83.5708C37.6997 83.7031 37.6783 83.8524 37.6783 84.0188V85.5996H36.9487V83.9868C36.9487 83.7308 36.9317 83.5175 36.8975 83.3468C36.8634 83.1719 36.8271 83.0311 36.7887 82.9244C36.7418 82.8007 36.6906 82.7004 36.6351 82.6236L37.2111 82.3932C37.2538 82.4402 37.2965 82.4978 37.3391 82.566C37.3733 82.6258 37.4074 82.7004 37.4415 82.79C37.4757 82.8754 37.5034 82.9735 37.5247 83.0844C37.6357 82.8284 37.7957 82.645 38.0047 82.534C38.2138 82.4188 38.4335 82.3612 38.6639 82.3612C38.9925 82.3612 39.2293 82.4615 39.3743 82.662C39.5237 82.8583 39.5983 83.125 39.5983 83.462V85.5996H38.8751ZM42.1316 83.1612C42.0676 83.0887 42.0015 83.0268 41.9332 82.9756C41.8692 82.9244 41.7817 82.8988 41.6708 82.8988C41.6068 82.8988 41.5343 82.9095 41.4532 82.9308C41.3764 82.9479 41.3039 82.9948 41.2356 83.0716C41.1673 83.1442 41.1097 83.253 41.0628 83.398C41.0202 83.5431 40.9988 83.7394 40.9988 83.9868C40.9988 84.2385 41.0202 84.4391 41.0628 84.5884C41.1097 84.7335 41.1673 84.8465 41.2356 84.9276C41.3081 85.0087 41.3849 85.062 41.466 85.0876C41.5471 85.1089 41.626 85.1196 41.7028 85.1196C41.7625 85.1196 41.8244 85.1153 41.8884 85.1068C41.9524 85.094 42.0143 85.0812 42.074 85.0684C42.1337 85.0513 42.1849 85.0364 42.2276 85.0236C42.2745 85.0108 42.3087 85.0001 42.33 84.9916L42.5092 85.4524C42.4964 85.4567 42.4665 85.4695 42.4196 85.4908C42.3769 85.5121 42.3172 85.5335 42.2404 85.5548C42.1636 85.5761 42.0719 85.5953 41.9652 85.6124C41.8585 85.6337 41.7391 85.6444 41.6068 85.6444C41.3593 85.6444 41.1481 85.6081 40.9732 85.5356C40.7983 85.4588 40.6532 85.3521 40.538 85.2156C40.4271 85.0791 40.3439 84.9148 40.2884 84.7228C40.2372 84.5308 40.2116 84.3175 40.2116 84.0828C40.2116 83.8012 40.2479 83.5516 40.3204 83.334C40.3972 83.1164 40.5018 82.9351 40.634 82.79C40.7663 82.6407 40.922 82.5276 41.1012 82.4508C41.2804 82.374 41.4724 82.3356 41.6772 82.3356C41.8777 82.3356 42.0463 82.374 42.1828 82.4508C42.3236 82.5276 42.4431 82.6343 42.5412 82.7708L42.1316 83.1612ZM42.7741 84.0828C42.7741 83.797 42.8125 83.5452 42.8893 83.3276C42.9704 83.11 43.0792 82.9287 43.2157 82.7836C43.3565 82.6343 43.5208 82.5234 43.7085 82.4508C43.8962 82.374 44.0989 82.3356 44.3165 82.3356C44.5085 82.3356 44.6706 82.3591 44.8029 82.406C44.9394 82.453 45.0504 82.517 45.1357 82.598C45.221 82.6791 45.2829 82.7751 45.3213 82.886C45.364 82.997 45.3853 83.1164 45.3853 83.2444C45.3853 83.398 45.3426 83.5452 45.2573 83.686C45.172 83.8226 45.0482 83.9442 44.8861 84.0508C44.7282 84.1532 44.5362 84.2364 44.3101 84.3004C44.084 84.3601 43.8301 84.3921 43.5485 84.3964C43.5613 84.4945 43.5805 84.5884 43.6061 84.678C43.636 84.7633 43.6765 84.8401 43.7277 84.9084C43.7832 84.9724 43.8536 85.0236 43.9389 85.062C44.0242 85.1004 44.1309 85.1196 44.2589 85.1196C44.3528 85.1196 44.453 85.1089 44.5597 85.0876C44.6664 85.0663 44.7645 85.0407 44.8541 85.0108C44.9608 84.9767 45.0653 84.9383 45.1677 84.8956L45.3597 85.35C45.2488 85.4055 45.1293 85.4545 45.0013 85.4972C44.8904 85.5356 44.7624 85.5697 44.6173 85.5996C44.4722 85.6295 44.3186 85.6444 44.1565 85.6444C43.909 85.6444 43.6978 85.6081 43.5229 85.5356C43.348 85.4588 43.205 85.3521 43.0941 85.2156C42.9832 85.0791 42.9021 84.9148 42.8509 84.7228C42.7997 84.5308 42.7741 84.3175 42.7741 84.0828ZM44.2589 82.8348C44.1181 82.8348 44.0008 82.869 43.9069 82.9372C43.8173 83.0012 43.7448 83.0866 43.6893 83.1932C43.6338 83.2956 43.5933 83.413 43.5677 83.5452C43.5464 83.6732 43.5336 83.8034 43.5293 83.9356C43.7341 83.9271 43.9069 83.9015 44.0477 83.8588C44.1928 83.8119 44.3101 83.7564 44.3997 83.6924C44.4893 83.6242 44.5533 83.5516 44.5917 83.4748C44.6344 83.398 44.6557 83.3212 44.6557 83.2444C44.6557 83.1207 44.6194 83.0226 44.5469 82.95C44.4744 82.8732 44.3784 82.8348 44.2589 82.8348ZM49.0303 81.5228V85.5996H48.3007V82.374C48.1685 82.4978 48.0319 82.6087 47.8911 82.7068C47.7503 82.8007 47.6181 82.8647 47.4943 82.8988L47.2063 82.374C47.3087 82.3314 47.4111 82.2887 47.5135 82.246C47.6159 82.1991 47.7183 82.1436 47.8207 82.0796C47.9231 82.0156 48.0277 81.941 48.1343 81.8556C48.2453 81.766 48.3626 81.6551 48.4863 81.5228H49.0303ZM50.3856 84.9596C50.4838 84.9937 50.5883 85.0215 50.6992 85.0428C50.8102 85.0641 50.9211 85.0748 51.032 85.0748C51.2155 85.0748 51.3648 85.0407 51.48 84.9724C51.5995 84.9041 51.6934 84.8124 51.7616 84.6972C51.8299 84.5777 51.8768 84.4412 51.9024 84.2876C51.9323 84.1297 51.9494 83.9634 51.9536 83.7884C51.9195 83.8311 51.8747 83.8759 51.8192 83.9228C51.768 83.9697 51.7062 84.0124 51.6336 84.0508C51.5654 84.0892 51.4864 84.1212 51.3968 84.1468C51.3072 84.1724 51.207 84.1852 51.096 84.1852C50.7206 84.1852 50.4262 84.07 50.2128 83.8396C49.9995 83.605 49.8928 83.2764 49.8928 82.854C49.8928 82.662 49.9227 82.485 49.9824 82.3228C50.0464 82.1564 50.1382 82.0135 50.2576 81.894C50.3771 81.7703 50.5243 81.6743 50.6992 81.606C50.8784 81.5378 51.0832 81.5036 51.3136 81.5036C51.5824 81.5036 51.8064 81.5548 51.9856 81.6572C52.1691 81.7596 52.3163 81.9026 52.4272 82.086C52.5382 82.2695 52.6171 82.4892 52.664 82.7452C52.711 82.997 52.7344 83.2743 52.7344 83.5772C52.7344 83.8503 52.7024 84.1127 52.6384 84.3644C52.5744 84.6119 52.472 84.8295 52.3312 85.0172C52.1947 85.2049 52.0176 85.3564 51.8 85.4716C51.5824 85.5825 51.3179 85.638 51.0064 85.638C50.8486 85.638 50.6992 85.6209 50.5584 85.5868C50.4219 85.5527 50.2982 85.5121 50.1872 85.4652L50.3856 84.9596ZM51.2368 83.6348C51.3222 83.6348 51.4054 83.622 51.4864 83.5964C51.5675 83.5708 51.64 83.541 51.704 83.5068C51.768 83.4727 51.8214 83.4407 51.864 83.4108C51.911 83.3767 51.9408 83.3554 51.9536 83.3468C51.9408 82.9031 51.8811 82.5767 51.7744 82.3676C51.6678 82.1543 51.495 82.0476 51.256 82.0476C51.0384 82.0476 50.8806 82.1223 50.7824 82.2716C50.6843 82.421 50.6352 82.613 50.6352 82.8476C50.6352 82.9586 50.6459 83.0631 50.6672 83.1612C50.6886 83.2551 50.7227 83.3383 50.7696 83.4108C50.8166 83.4791 50.8784 83.5346 50.9552 83.5772C51.032 83.6156 51.1259 83.6348 51.2368 83.6348ZM53.4348 83.5388L53.6524 81.5228H55.7516L55.6492 82.1052H54.2924L54.158 83.1356C54.1921 83.1143 54.2583 83.0887 54.3564 83.0588C54.4545 83.029 54.6039 83.014 54.8044 83.014C54.9836 83.014 55.1436 83.0482 55.2844 83.1164C55.4295 83.1804 55.5511 83.27 55.6492 83.3852C55.7516 83.5004 55.8284 83.6348 55.8796 83.7884C55.9351 83.942 55.9628 84.1063 55.9628 84.2812C55.9628 84.4476 55.9393 84.614 55.8924 84.7804C55.8455 84.9425 55.7687 85.0876 55.662 85.2156C55.5553 85.3436 55.4167 85.4481 55.246 85.5292C55.0796 85.606 54.8748 85.6444 54.6316 85.6444C54.4055 85.6444 54.1815 85.6124 53.9596 85.5484C53.742 85.4844 53.5244 85.4033 53.3068 85.3052L53.5244 84.774C53.7207 84.8593 53.8913 84.9319 54.0364 84.9916C54.1857 85.0513 54.3372 85.0812 54.4908 85.0812C54.7383 85.0812 54.9132 85.0151 55.0156 84.8828C55.1223 84.7463 55.1756 84.5436 55.1756 84.2748C55.1756 84.0487 55.1159 83.878 54.9964 83.7628C54.8812 83.6434 54.7276 83.5836 54.5356 83.5836C54.4076 83.5836 54.2967 83.5922 54.2028 83.6092C54.1089 83.6263 54.0279 83.6455 53.9596 83.6668C53.8956 83.6882 53.8444 83.7095 53.806 83.7308C53.7719 83.7479 53.7484 83.7586 53.7356 83.7628L53.4348 83.5388ZM58.9758 81.9836L57.6894 85.5996H56.9022L58.1438 82.1052H56.4094L56.307 81.5228H58.9758V81.9836Z" fill="#2A2A2A"/>
<line x1="28.8003" y1="83.9999" x2="2.80041" y2="83.9999" stroke="#2A2A2A" stroke-width="0.799996"/>
<line x1="88" y1="83.9999" x2="62.0001" y2="83.9999" stroke="#2A2A2A" stroke-width="0.799996"/>
<defs>
<linearGradient id="paint0_linear" x1="0.000488281" y1="9.81655" x2="42.7292" y2="9.81655" gradientUnits="userSpaceOnUse">
<stop stop-color="#3FFFD1"/>
<stop offset="1" stop-color="#008FAA"/>
</linearGradient>
<linearGradient id="paint1_linear" x1="0.000244141" y1="42.724" x2="42.7294" y2="42.724" gradientUnits="userSpaceOnUse">
<stop stop-color="#3FFFD1"/>
<stop offset="1" stop-color="#008FAA"/>
</linearGradient>
<linearGradient id="paint2_linear" x1="1.51085" y1="6.75922" x2="22.0796" y2="6.75922" gradientUnits="userSpaceOnUse">
<stop stop-color="#3FFFD1"/>
<stop offset="1" stop-color="#008FAA"/>
</linearGradient>
<linearGradient id="paint3_linear" x1="0.000732422" y1="52.4822" x2="13.7133" y2="52.4822" gradientUnits="userSpaceOnUse">
<stop stop-color="#3FFFD1"/>
<stop offset="1" stop-color="#008FAA"/>
</linearGradient>
<linearGradient id="paint4_linear" x1="5.74906" y1="11.2908" x2="12.0359" y2="4.99648" gradientUnits="userSpaceOnUse">
<stop stop-color="#3FFFD1"/>
<stop offset="1" stop-color="#008FAA"/>
</linearGradient>
<linearGradient id="paint5_linear" x1="-0.409803" y1="63.1964" x2="16.8794" y2="45.8866" gradientUnits="userSpaceOnUse">
<stop stop-color="#3FFFD1"/>
<stop offset="1" stop-color="#008FAA"/>
</linearGradient>
<linearGradient id="paint6_linear" x1="95.8095" y1="-7.66205" x2="51.2566" y2="27.7632" gradientUnits="userSpaceOnUse">
<stop stop-color="#3FFFD1"/>
<stop offset="1" stop-color="#008FAA"/>
</linearGradient>
<linearGradient id="paint7_linear" x1="47.9438" y1="3.53932" x2="95.1842" y2="66.9174" gradientUnits="userSpaceOnUse">
<stop stop-color="#3FFFD1"/>
<stop offset="1" stop-color="#008FAA"/>
</linearGradient>
<linearGradient id="paint8_linear" x1="2.80029" y1="74.1986" x2="88.0355" y2="74.1986" gradientUnits="userSpaceOnUse">
<stop stop-color="#3FFFD1"/>
<stop offset="1" stop-color="#008FAA"/>
</linearGradient>
<clipPath id="clip0">
<rect width="87.9996" height="63.6084" fill="white"/>
</clipPath>
</defs>
</svg>
